<?xml version="1.0" encoding="UTF-8" standalone="no"?>
<svg
   xmlns:dc="http://purl.org/dc/elements/1.1/"
   xmlns:cc="http://creativecommons.org/ns#"
   xmlns:rdf="http://www.w3.org/1999/02/22-rdf-syntax-ns#"
   xmlns:svg="http://www.w3.org/2000/svg"
   xmlns="http://www.w3.org/2000/svg"
   xmlns:sodipodi="http://sodipodi.sourceforge.net/DTD/sodipodi-0.dtd"
   xmlns:inkscape="http://www.inkscape.org/namespaces/inkscape"
   id="svg8"
   version="1.1"
   viewBox="0 0 75.43885 84.885132"
   height="84.885132mm"
   width="75.43885mm"
   sodipodi:docname="mushrooms.svg"
   inkscape:version="0.92.4 (5da689c313, 2019-01-14)">
  <sodipodi:namedview
     pagecolor="#ffffff"
     bordercolor="#666666"
     borderopacity="1"
     objecttolerance="10"
     gridtolerance="10"
     guidetolerance="10"
     inkscape:pageopacity="0"
     inkscape:pageshadow="2"
     inkscape:window-width="1920"
     inkscape:window-height="1019"
     id="namedview13"
     showgrid="false"
     inkscape:zoom="1.0824912"
     inkscape:cx="-50.754922"
     inkscape:cy="256.48486"
     inkscape:window-x="0"
     inkscape:window-y="0"
     inkscape:window-maximized="1"
     inkscape:current-layer="svg8"
     fit-margin-top="0"
     fit-margin-left="0"
     fit-margin-right="0"
     fit-margin-bottom="0" />
  <defs
     id="defs2">
    <symbol
       id="symbol8716">
      <path
         id="ellipse4597"
         style="fill:#000000;fill-opacity:1;stroke:#000000;stroke-width:2.09522796;stroke-linecap:round;stroke-linejoin:round;stroke-miterlimit:4;stroke-dasharray:none;stroke-opacity:1;paint-order:fill markers stroke"
         d="m 116.85849,124.55981 c -4.40062,6.85305 -4.27351,-7.08464 0,0 z m 24.62805,1.4552 c -5.02896,12.01317 -5.98252,-14.64428 0,0 z m -0.9247,-1.09582 c -8.06908,9.17974 -22.88951,-6.45892 -3.44967,-1.7892 l 1.90178,0.6933 z m -1.19201,-3.13753 c -5.98496,10.20885 -3.17707,-13.07745 -1.37833,-0.11372 l 0.20638,0.56586 z m -0.52916,2.64584 c -6.21838,10.07822 -6.9181,-9.63541 0,0 z m -2.11664,2e-5 c -6.21837,10.07821 -6.91811,-9.63538 0,0 z m 0,-5.82082 c -6.21839,10.07821 -6.9181,-9.6354 0,0 z m -5.29167,0 c -6.21839,10.07821 -6.9181,-9.6354 0,0 z m -14.66009,4.95438 c 1.83431,25.76442 -2.70537,51.42556 -2.25197,77.11873 1.57602,20.59492 3.29804,42.86792 -8.26718,61.17363 -9.779656,11.33422 -8.096762,34.56102 11.82017,27.58217 9.00878,-3.89215 -4.46527,-14.26112 2.32647,-22.4104 6.01897,-17.7406 7.52964,-36.54081 4.53374,-55.02588 -3.12706,-19.10316 -3.13331,-38.41433 -1.31602,-57.62767 0.54184,-12.06306 1.13227,-24.12386 1.72761,-36.18437 m -18.8319,10.11555 c 43.47897,-0.24833 37.63347,-0.71948 37.78933,-11.01467 0.15587,-10.29518 -16.45994,-23.847614 -20.8294,-30.333675 -4.36945,-6.486061 -12.35171,-22.718306 -15.18799,-1.566052 -0.55293,17.050747 -24.430213,30.915287 -12.076513,45.894117 14.224683,2.05296 24.190523,-23.1279 40.485613,-13.71449 17.02013,18.97675 -22.71165,8.11533 -30.18104,10.73477 m 19.09831,-7.05035 c 0,1.22283 -1.29044,2.21412 -2.88227,2.21412 -1.59183,0 -2.88226,-0.9913 -2.88226,-2.21412 0,-1.22283 1.29043,-2.21413 2.88226,-2.21413 1.59184,0 2.88227,0.9913 2.88227,2.21413 z"
         inkscape:connector-curvature="0" />
    </symbol>
    <symbol
       id="symbol8716-7">
      <path
         id="ellipse4597-5"
         style="fill:#000000;fill-opacity:1;stroke:#000000;stroke-width:2.09522796;stroke-linecap:round;stroke-linejoin:round;stroke-miterlimit:4;stroke-dasharray:none;stroke-opacity:1;paint-order:fill markers stroke"
         d="m 116.85849,124.55981 c -4.40062,6.85305 -4.27351,-7.08464 0,0 z m 24.62805,1.4552 c -5.02896,12.01317 -5.98252,-14.64428 0,0 z m -0.9247,-1.09582 c -8.06908,9.17974 -22.88951,-6.45892 -3.44967,-1.7892 l 1.90178,0.6933 z m -1.19201,-3.13753 c -5.98496,10.20885 -3.17707,-13.07745 -1.37833,-0.11372 l 0.20638,0.56586 z m -0.52916,2.64584 c -6.21838,10.07822 -6.9181,-9.63541 0,0 z m -2.11664,2e-5 c -6.21837,10.07821 -6.91811,-9.63538 0,0 z m 0,-5.82082 c -6.21839,10.07821 -6.9181,-9.6354 0,0 z m -5.29167,0 c -6.21839,10.07821 -6.9181,-9.6354 0,0 z m -14.66009,4.95438 c 1.83431,25.76442 -2.70537,51.42556 -2.25197,77.11873 1.57602,20.59492 3.29804,42.86792 -8.26718,61.17363 -9.779656,11.33422 -8.096762,34.56102 11.82017,27.58217 9.00878,-3.89215 -4.46527,-14.26112 2.32647,-22.4104 6.01897,-17.7406 7.52964,-36.54081 4.53374,-55.02588 -3.12706,-19.10316 -3.13331,-38.41433 -1.31602,-57.62767 0.54184,-12.06306 1.13227,-24.12386 1.72761,-36.18437 m -18.8319,10.11555 c 43.47897,-0.24833 37.63347,-0.71948 37.78933,-11.01467 0.15587,-10.29518 -16.45994,-23.847614 -20.8294,-30.333675 -4.36945,-6.486061 -12.35171,-22.718306 -15.18799,-1.566052 -0.55293,17.050747 -24.430213,30.915287 -12.076513,45.894117 14.224683,2.05296 24.190523,-23.1279 40.485613,-13.71449 17.02013,18.97675 -22.71165,8.11533 -30.18104,10.73477 m 19.09831,-7.05035 c 0,1.22283 -1.29044,2.21412 -2.88227,2.21412 -1.59183,0 -2.88226,-0.9913 -2.88226,-2.21412 0,-1.22283 1.29043,-2.21413 2.88226,-2.21413 1.59184,0 2.88227,0.9913 2.88227,2.21413 z"
         inkscape:connector-curvature="0" />
    </symbol>
  </defs>
  <metadata
     id="metadata5">
    <rdf:RDF>
      <cc:Work
         rdf:about="">
        <dc:format>image/svg+xml</dc:format>
        <dc:type
           rdf:resource="http://purl.org/dc/dcmitype/StillImage" />
        <dc:title></dc:title>
      </cc:Work>
    </rdf:RDF>
  </metadata>
  <g
     style="display:inline"
     id="layer2"
     transform="translate(-114.30848,-82.592335)" />
  <g
     style="fill:#889fb3;fill-opacity:0.04166667;stroke:none"
     id="g8817"
     transform="matrix(0.15304656,0,0,0.11940895,-8.0693815,-2.4919244)">
    <path
       id="path8806"
       style="fill:#889fb3;fill-opacity:0.04166667;stroke:none;stroke-width:0.17269044px;stroke-linecap:butt;stroke-linejoin:miter;stroke-opacity:1"
       d="m 144.66203,81.807985 c -7.08921,8.689827 -7.76271,12.242394 -11.75875,18.173729 -2.91281,4.992486 -12.17961,11.650506 -5.58245,17.320036 3.37531,4.17918 12.34112,-12.62123 10.6442,-5.63169 0.49757,26.96898 -7.26994,64.133 -4.65792,91.14672 0.49611,13.60464 0.96556,28.86192 10.67374,39.4956 5.00728,6.27084 12.01764,-1.94045 12.1343,-7.59034 2.25345,-6.7457 -1.41878,-13.29631 -5.2645,-18.5747 -7.26201,-13.28281 -8.10891,-29.05351 -5.68495,-43.73327 1.49777,-18.84466 -2.47612,-43.08149 -0.92476,-61.92315 4.42298,0.42226 10.74617,8.86405 11.85699,0.38801 -0.24615,-10.22969 -2.06562,-15.089787 -6.48197,-21.328286 -4.41636,-6.238499 -1.63898,-19.07076 -4.95393,-7.742659 z M 107.43488,240.37959 c 20.01653,-18.29018 16.27595,-51.06421 17.80554,-76.7595 -0.0458,-25.09621 -12.28208,-73.424377 -7.81397,-98.228971 13.52721,4.781443 29.40378,-0.392892 16.63002,-11.092637 C 121.28271,43.598737 108.53875,7.8158206 104.82665,25.878274 101.10969,43.964381 87.029819,51.355861 84.066572,63.697419 c -3.78614,15.76879 21.938648,-11.240308 24.222468,3.530136 0.8685,24.216728 1.08757,68.513615 4.4888,90.033755 3.40122,21.52014 -5.84583,44.71148 -18.879884,59.33448 -6.289077,9.76376 3.520607,32.93625 13.536924,23.7838 z m 0.29865,-9.91713 c 5.24798,-10.15163 3.08984,-24.78056 -0.6667,-37.41224 -2.61966,-8.363 -4.74906,-16.90804 -7.839007,-25.10486 -7.873584,-19.56917 -19.064859,-37.63771 -24.687006,-58.20701 -2.451893,-6.56169 5.722126,-2.17985 8.014323,-5.20868 3.930379,-0.50758 5.037906,-7.53413 -0.0642,-9.02334 C 73.986332,91.68335 67.296568,82.046269 59.13288,77.147398 54.112281,76.96445 58.982421,87.474345 56.78214,91.29753 c -0.966007,7.51911 -5.350047,13.7657 -3.682608,22.27617 3.95405,4.14587 6.879837,-5.21318 10.553703,-6.07387 4.669413,-3.14908 6.355461,6.31621 8.057507,10.58057 6.806891,19.06617 13.190266,38.42228 21.797026,56.65001 5.496097,14.1881 4.709583,29.87138 0.390188,41.86538 -0.922058,6.90334 4.756826,15.70871 10.308454,16.45119 1.54015,0.0572 2.80726,-1.03884 3.52717,-2.58452 z" />
  </g>
  <path
     style="fill:#889fb3;fill-opacity:0.04166667;stroke:none;stroke-width:0.09359259px;stroke-linecap:butt;stroke-linejoin:miter;stroke-opacity:1"
     d="M 256.78125 219.87305 C 256.04562 219.92765 255.45925 220.60045 255.05664 222.12891 C 252.90659 230.29134 244.7629 233.6274 243.04883 239.19727 C 240.85876 246.31387 255.73948 234.12498 257.06055 240.79102 C 257.56293 251.72025 257.68883 271.71159 259.65625 281.42383 C 260.80712 287.10515 259.44347 293.04001 256.61328 298.3125 C 256.52481 298.068 256.44556 297.81766 256.35352 297.57617 C 254.83819 293.80187 253.60572 289.9454 251.81836 286.24609 C 247.26393 277.41434 240.79116 269.25968 237.53906 259.97656 C 236.12078 257.01521 240.84792 258.99194 242.17383 257.625 C 244.44733 257.39592 245.0879 254.22483 242.13672 253.55273 C 237.21728 251.82739 233.34723 247.47848 228.625 245.26758 C 225.72086 245.185 228.53835 249.92886 227.26562 251.6543 C 226.70684 255.04774 224.1722 257.86618 225.13672 261.70703 C 227.42391 263.5781 229.11511 259.35523 231.24023 258.9668 C 233.94122 257.54558 234.91781 261.81569 235.90234 263.74023 C 239.83975 272.34497 243.53124 281.08225 248.50977 289.30859 C 251.68895 295.71182 251.23485 302.78817 248.73633 308.20117 C 245.09845 312.60765 250.77253 323.06614 256.56641 318.93555 C 268.14484 310.68102 265.98045 295.8895 266.86523 284.29297 C 266.83878 272.96681 259.76115 251.15548 262.3457 239.96094 C 270.17043 242.11885 279.35374 239.78399 271.96484 234.95508 C 265.96136 231.0316 259.96896 219.63643 256.78125 219.87305 z M 279.09961 245.34961 C 278.95415 245.24118 278.69883 245.77344 278.09961 247.37109 C 273.9989 251.29289 273.61031 252.8954 271.29883 255.57227 C 269.61393 257.82542 264.25227 260.82996 268.06836 263.38867 C 270.02079 265.27477 275.20814 257.69321 274.22656 260.84766 C 274.51437 273.01901 270.02034 289.79088 271.53125 301.98242 C 271.81823 308.12232 272.08944 315.00951 277.70508 319.80859 C 280.60151 322.63868 284.65713 318.93266 284.72461 316.38281 C 286.0281 313.33841 283.90422 310.38219 281.67969 308 C 277.47902 302.00534 276.9885 294.88683 278.39062 288.26172 C 279.257 279.75695 276.95809 268.81983 277.85547 260.31641 C 280.41391 260.50697 284.0723 264.31556 284.71484 260.49023 C 284.57247 255.87348 283.51945 253.68073 280.96484 250.86523 C 279.20854 248.92958 279.41963 245.58815 279.09961 245.34961 z "
     transform="scale(0.26458334)"
     id="path8768-9" />
</svg>
